<svg width="506" height="115" viewBox="0 0 506 115" fill="none" xmlns="http://www.w3.org/2000/svg">
<g filter="url(#filter0_d_3308_80)">
<path d="M20 20.5H257H486V56C486 67.0457 477.046 76 466 76H74.654C69.209 76 63.8213 77.1117 58.821 79.267L24.1875 94.1951C22.2072 95.0486 20 93.5965 20 91.4401V20.5Z" fill="black"/>
<path d="M485.75 20.75V56C485.75 66.9076 476.908 75.75 466 75.75H74.654C69.1749 75.75 63.7536 76.8686 58.722 79.0374L24.0885 93.9655C22.2732 94.7479 20.25 93.4168 20.25 91.4401V20.75H257H485.75Z" stroke="#EB7D01" stroke-width="0.5"/>
</g>
<defs>
<filter id="filter0_d_3308_80" x="0" y="0.5" width="506" height="113.943" filterUnits="userSpaceOnUse" color-interpolation-filters="sRGB">
<feFlood flood-opacity="0" result="BackgroundImageFix"/>
<feColorMatrix in="SourceAlpha" type="matrix" values="0 0 0 0 0 0 0 0 0 0 0 0 0 0 0 0 0 0 127 0" result="hardAlpha"/>
<feOffset/>
<feGaussianBlur stdDeviation="10"/>
<feComposite in2="hardAlpha" operator="out"/>
<feColorMatrix type="matrix" values="0 0 0 0 0.921569 0 0 0 0 0.490196 0 0 0 0 0.00392157 0 0 0 0.6 0"/>
<feBlend mode="normal" in2="BackgroundImageFix" result="effect1_dropShadow_3308_80"/>
<feBlend mode="normal" in="SourceGraphic" in2="effect1_dropShadow_3308_80" result="shape"/>
</filter>
</defs>
</svg>
