<svg width="50" height="50" viewBox="0 0 50 50" fill="none" xmlns="http://www.w3.org/2000/svg">
<circle cx="25" cy="25" r="25" fill="url(#paint0_linear_23_900)"/>
<path d="M25.0012 12C21.4706 12 21.0275 12.0155 19.6409 12.0785C18.2569 12.142 17.3122 12.361 16.4857 12.6825C15.6305 13.0145 14.9052 13.4587 14.1827 14.1815C13.4595 14.9042 13.0153 15.6294 12.6822 16.4842C12.3598 17.311 12.1405 18.2561 12.0783 19.6394C12.0162 21.0261 12 21.4694 12 25C12 28.5306 12.0156 28.9724 12.0785 30.3589C12.1422 31.7429 12.3613 32.6876 12.6825 33.5141C13.0148 34.3693 13.459 35.0945 14.1818 35.8171C14.9042 36.5402 15.6295 36.9855 16.484 37.3175C17.3112 37.639 18.256 37.858 19.6397 37.9215C21.0264 37.9845 21.4692 38 24.9996 38C28.5305 38 28.9723 37.9845 30.3589 37.9215C31.7428 37.858 32.6886 37.639 33.5158 37.3175C34.3705 36.9855 35.0948 36.5402 35.817 35.8171C36.5402 35.0945 36.9843 34.3693 37.3175 33.5145C37.637 32.6876 37.8565 31.7426 37.9215 30.3592C37.9837 28.9726 38 28.5306 38 25C38 21.4694 37.9837 21.0263 37.9215 19.6396C37.8565 18.2557 37.637 17.3111 37.3175 16.4846C36.9843 15.6294 36.5402 14.9042 35.817 14.1815C35.094 13.4585 34.3708 13.0142 33.515 12.6826C32.6862 12.361 31.741 12.1418 30.357 12.0785C28.9703 12.0155 28.5288 12 24.9971 12H25.0012ZM23.8349 14.3427C24.1811 14.3422 24.5674 14.3427 25.0012 14.3427C28.4723 14.3427 28.8836 14.3552 30.2543 14.4175C31.5218 14.4754 32.2098 14.6872 32.668 14.8652C33.2748 15.1007 33.7073 15.3824 34.162 15.8376C34.617 16.2926 34.8986 16.7258 35.1348 17.3325C35.3128 17.7901 35.5248 18.4781 35.5825 19.7456C35.6448 21.116 35.6583 21.5276 35.6583 24.997C35.6583 28.4664 35.6448 28.8781 35.5825 30.2484C35.5245 31.5159 35.3128 32.2039 35.1348 32.6616C34.8992 33.2683 34.617 33.7003 34.162 34.155C33.707 34.61 33.275 34.8916 32.668 35.1273C32.2103 35.306 31.5218 35.5173 30.2543 35.5753C28.8839 35.6375 28.4723 35.6511 25.0012 35.6511C21.5299 35.6511 21.1185 35.6375 19.7481 35.5753C18.4806 35.5168 17.7927 35.305 17.334 35.127C16.7274 34.8913 16.294 34.6098 15.839 34.1548C15.384 33.6998 15.1024 33.2675 14.8662 32.6606C14.6883 32.2028 14.4762 31.5149 14.4185 30.2474C14.3562 28.877 14.3438 28.4654 14.3438 24.9938C14.3438 21.5223 14.3562 21.1128 14.4185 19.7423C14.4765 18.4748 14.6883 17.7869 14.8662 17.3286C15.1019 16.7219 15.384 16.2887 15.8392 15.8337C16.2942 15.3787 16.7274 15.097 17.3342 14.8609C17.7924 14.6821 18.4806 14.4709 19.7481 14.4126C20.9474 14.3584 21.4121 14.3422 23.8349 14.3395V14.3427ZM31.9406 16.5012C31.0793 16.5012 30.3806 17.1993 30.3806 18.0607C30.3806 18.9219 31.0793 19.6207 31.9406 19.6207C32.8018 19.6207 33.5006 18.9219 33.5006 18.0607C33.5006 17.1994 32.8018 16.5007 31.9406 16.5007V16.5012ZM25.0012 18.3239C21.3144 18.3239 18.3251 21.3131 18.3251 25C18.3251 28.6869 21.3144 31.6747 25.0012 31.6747C28.6881 31.6747 31.6763 28.6869 31.6763 25C31.6763 21.3132 28.6878 18.3239 25.0009 18.3239H25.0012ZM25.0012 20.6666C27.3943 20.6666 29.3346 22.6066 29.3346 25C29.3346 27.3931 27.3943 29.3334 25.0012 29.3334C22.6079 29.3334 20.6679 27.3931 20.6679 25C20.6679 22.6066 22.6079 20.6666 25.0012 20.6666Z" fill="white"/>
<defs>
<linearGradient id="paint0_linear_23_900" x1="30.5" y1="3.5" x2="9" y2="43" gradientUnits="userSpaceOnUse">
<stop stop-color="#9930B1"/>
<stop offset="1" stop-color="#FFAC1D"/>
</linearGradient>
</defs>
</svg>
