<svg width="90" height="60" viewBox="0 0 90 60" fill="none" xmlns="http://www.w3.org/2000/svg">
<g clip-path="url(#clip0_52_116)">
<path d="M88.0123 9.35833C87.4961 7.54952 86.4891 5.90048 85.0917 4.57543C83.6942 3.25037 81.9551 2.29554 80.0473 1.806C73.0632 0 44.9544 0 44.9544 0C44.9544 0 16.8441 0.0546665 9.85999 1.86067C7.95224 2.35023 6.21303 3.30512 4.81557 4.63023C3.41811 5.95535 2.41116 7.60446 1.89499 9.41333C-0.21755 21.1793 -1.03704 39.108 1.953 50.4033C2.46922 52.2121 3.4762 53.8612 4.87365 55.1862C6.27111 56.5113 8.01029 57.4661 9.918 57.9557C16.9021 59.7617 45.0117 59.7617 45.0117 59.7617C45.0117 59.7617 73.1209 59.7617 80.1046 57.9557C82.0124 57.4662 83.7517 56.5114 85.1492 55.1863C86.5467 53.8612 87.5537 52.2122 88.07 50.4033C90.2982 38.6207 90.9848 20.703 88.0123 9.35833Z" fill="#FF0000"/>
<path d="M37.0587 43.111L60.3772 30.305L37.0587 17.499V43.111Z" fill="white"/>
</g>
<defs>
<clipPath id="clip0_52_116">
<rect width="90" height="60" fill="white"/>
</clipPath>
</defs>
</svg>
