<svg width="149" height="56" viewBox="0 0 149 56" fill="none" xmlns="http://www.w3.org/2000/svg">
<g clip-path="url(#clip0_45_219)">
<path d="M6.57135 20.8052C6.74617 21.8436 6.88067 22.9062 6.88067 23.8126V34.6472H-1.52588e-05V3.24896H6.90219V12.1147C6.90219 13.3528 6.81343 14.615 6.59285 15.8531H9.26121L17.199 3.24896H24.6956L16.6046 15.7425C15.9644 16.8699 15.2381 17.555 14.3343 18.2401V18.4181C15.2381 19.0601 16.3194 20.1416 16.9569 21.1828L25.2042 34.6042H17.4868L9.26121 20.8052H6.57135Z" fill="#33A45A"/>
<path d="M28.4011 12.2046H35.0828V34.6266H28.4011V12.2046ZM33.2321 2.29776C34.5528 2.29776 35.1715 2.98264 35.1715 4.24494V6.69949C35.1715 8.02384 34.5311 8.64404 33.2321 8.64404H30.2329C28.9093 8.64404 28.2691 8.00496 28.2691 6.69949V4.24494C28.2691 2.96376 28.9093 2.29776 30.2329 2.29776H33.2321Z" fill="#33A45A"/>
<path d="M47.4765 27.3052C47.4765 28.8535 48.3345 29.5844 50.0103 29.5844H51.8206L52.5926 34.2722C51.4655 34.8683 48.6894 35.1758 47.2343 35.1758C43.2857 35.1758 40.7949 32.945 40.7949 28.9856V2.78482H47.4765V27.3052Z" fill="#33A45A"/>
<path d="M82.4052 32.1263C82.4052 33.7634 81.5875 34.6266 79.9574 34.6266H75.6562C74.2011 34.6266 73.585 33.9387 72.8992 32.5686L64.6978 15.8296C64.0576 14.4594 63.1537 12.5148 62.8014 10.9665H62.293C62.5135 12.6038 62.6023 14.3273 62.6023 15.9645V34.6023H56.0094V5.74741C56.0094 4.11289 56.8703 3.24979 58.5003 3.24979H62.7126C64.1678 3.24979 64.8081 3.93489 65.4697 5.30507L73.4075 21.5343C74.0907 22.9071 74.9516 24.8087 75.6805 26.5754H76.1405C76.0114 24.8087 75.877 23.0824 75.877 21.2915V3.24979H82.4052V32.1263Z" fill="#33A45A"/>
<path d="M100.267 21.6241C102.074 21.6241 102.362 20.5856 102.362 19.3018C102.362 17.2006 101.456 16.4939 98.545 16.4939C95.1933 16.4939 94.0934 17.4002 93.9157 21.6241H100.267ZM94.0475 25.6699C94.4671 29.0306 95.9438 29.8046 99.3627 29.8046C101.412 29.8046 104.675 29.6267 107.72 29.2949L108.358 33.4756C105.735 34.7567 101.786 35.156 98.6122 35.156C90.1231 35.156 86.9462 31.7062 86.9462 23.4151C86.9462 14.5466 90.2119 11.5418 98.3245 11.5418C105.956 11.5418 108.888 14.2148 108.933 19.3692C108.933 23.4582 106.991 25.6482 102.117 25.6482H94.0475V25.6699Z" fill="#33A45A"/>
<path d="M123.088 25.2051L117.773 34.6266H110.871L117.773 23.1256L111.379 12.2046H118.238L123 20.8491H123.465L128.226 12.2046H135.085L128.691 23.1256L135.591 34.6266H128.691L123.355 25.2051H123.088Z" fill="#33A45A"/>
<path d="M142.075 6.78686C143.068 6.76528 143.374 6.50095 143.374 5.54884C143.374 4.59671 143.068 4.33238 142.075 4.33238H140.684V6.78686H142.075ZM143.595 11.0539L142.979 8.64254C142.825 8.13547 142.559 7.93588 142.075 7.93588L140.684 7.9143V11.0539H139.296V3.27239C140.179 3.18339 140.795 3.1618 142.118 3.1618C144.036 3.1618 144.829 3.66888 144.829 5.43826C144.829 6.61154 144.456 7.27236 143.374 7.40452V7.47194C143.751 7.56097 144.235 7.87114 144.413 8.62366L145.117 11.0539H143.595Z" fill="#33A45A"/>
<path d="M141.788 1.52393C138.636 1.52393 136.075 4.08899 136.075 7.25284C136.075 10.414 138.636 12.979 141.788 12.979C144.941 12.979 147.499 10.414 147.499 7.25284C147.499 4.08899 144.941 1.52393 141.788 1.52393ZM141.788 14.4814C137.797 14.4814 134.577 11.2312 134.577 7.25284C134.577 3.27172 137.818 0 141.788 0C145.759 0 149 3.25014 149 7.22855C149 11.2096 145.778 14.4814 141.788 14.4814Z" fill="#33A45A"/>
<path d="M5.2277 51.6792C5.73878 51.6792 6.21759 51.574 6.6668 51.3635L4.91299 49.5644L6.02122 48.5611L7.8584 50.4438C8.36948 49.8126 8.62501 49.0737 8.62501 48.2322C8.62501 47.2503 8.29686 46.4331 7.63784 45.7722C6.98151 45.1114 6.17724 44.7823 5.2277 44.7823C4.27549 44.7823 3.47391 45.1114 2.81759 45.7722C2.15857 46.4331 1.8304 47.2503 1.8304 48.2322C1.8304 49.2112 2.15857 50.031 2.81759 50.6893C3.47391 51.35 4.27549 51.6792 5.2277 51.6792ZM10.2013 48.2322C10.2013 49.5133 9.77898 50.6218 8.93972 51.555L9.9538 52.5988L8.84557 53.6022L7.78847 52.518C6.9842 52.9846 6.1315 53.2193 5.2277 53.2193C3.8478 53.2193 2.67503 52.7365 1.70667 51.7681C0.738314 50.8026 0.254139 49.6238 0.254139 48.2322C0.254139 46.8404 0.738314 45.6617 1.70667 44.6933C2.67503 43.7278 3.8478 43.2448 5.2277 43.2448C6.60762 43.2448 7.78039 43.7278 8.74876 44.6933C9.7171 45.6617 10.2013 46.8404 10.2013 48.2322Z" fill="#E37551"/>
<path d="M16.3114 46.1701H17.7908V53.04H16.3114V52.1608C15.8622 52.8647 15.1548 53.2179 14.1864 53.2179C13.401 53.2179 12.7662 52.9671 12.282 52.4627C11.7978 51.9585 11.5557 51.2679 11.5557 50.3887V46.1701H13.0352V50.2375C13.0352 50.7502 13.1723 51.1439 13.4467 51.4191C13.7211 51.6942 14.095 51.8316 14.5711 51.8316C15.0902 51.8316 15.5125 51.6698 15.8299 51.3434C16.15 51.0171 16.3114 50.5208 16.3114 49.8519V46.1701Z" fill="#E37551"/>
<path d="M21.2292 51.1789C21.6407 51.5944 22.1573 51.802 22.7784 51.802C23.3998 51.802 23.9164 51.5944 24.3252 51.1789C24.7369 50.7608 24.9413 50.2375 24.9413 49.6065C24.9413 48.9726 24.7369 48.4493 24.3252 48.0312C23.9164 47.6159 23.3998 47.4081 22.7784 47.4081C22.1573 47.4081 21.6407 47.6159 21.2292 48.0312C20.8176 48.4493 20.6132 48.9726 20.6132 49.6065C20.6132 50.2375 20.8176 50.7608 21.2292 51.1789ZM24.9413 46.1701H26.4233V53.04H24.9413V52.0501C24.3843 52.8297 23.5855 53.2179 22.5445 53.2179C21.6031 53.2179 20.7988 52.8673 20.1344 52.1688C19.4673 51.4675 19.1338 50.6125 19.1338 49.6065C19.1338 48.5896 19.4673 47.7319 20.1344 47.036C20.7988 46.3401 21.6031 45.9922 22.5445 45.9922C23.5855 45.9922 24.3843 46.378 24.9413 47.1465V46.1701Z" fill="#E37551"/>
<path d="M28.1482 43.012H29.6276V53.0402H28.1482V43.012Z" fill="#E37551"/>
<path d="M31.3381 46.1703H32.8175V53.0402H31.3381V46.1703ZM32.7422 44.8593C32.5566 45.0481 32.3363 45.1397 32.078 45.1397C31.8251 45.1397 31.6019 45.0481 31.4162 44.8593C31.228 44.6705 31.1337 44.4496 31.1337 44.1933C31.1337 43.937 31.2253 43.713 31.4081 43.5268C31.5911 43.338 31.8145 43.2437 32.078 43.2437C32.3442 43.2437 32.5676 43.338 32.7504 43.5268C32.9334 43.713 33.0248 43.937 33.0248 44.1933C33.0248 44.4496 32.9305 44.6705 32.7422 44.8593Z" fill="#E37551"/>
<path d="M38.3548 47.5998H36.6549V50.8985C36.6549 51.1818 36.7193 51.3839 36.8458 51.508C36.9749 51.6322 37.1659 51.7022 37.416 51.713C37.6663 51.7292 37.9782 51.7265 38.3548 51.7077V53.04C37.2224 53.1776 36.4074 53.0805 35.9152 52.746C35.4229 52.4116 35.1755 51.794 35.1755 50.8985V47.5998H33.9166V46.1703H35.1755V44.6867L36.6549 44.2471V46.1703H38.3548V47.5998Z" fill="#E37551"/>
<path d="M44.4514 46.1703H46.0251L43.3943 53.2587C42.738 55.036 41.6244 55.8805 40.0534 55.786V54.3997C40.5189 54.4293 40.8926 54.3295 41.1752 54.1029C41.4604 53.8791 41.6917 53.5311 41.8745 53.0537L41.9445 52.916L39.0393 46.1703H40.656L42.6976 51.1574L44.4514 46.1703Z" fill="#E37551"/>
<path d="M52.0955 51.1583C52.5071 51.5709 53.0129 51.7759 53.6153 51.7759C54.2205 51.7759 54.7263 51.5709 55.1377 51.1583C55.5494 50.7457 55.7538 50.2278 55.7538 49.6047C55.7538 48.9816 55.5494 48.4637 55.1377 48.0538C54.7263 47.6412 54.2205 47.4362 53.6153 47.4362C53.0129 47.4362 52.5071 47.6412 52.0955 48.0538C51.684 48.4637 51.4796 48.9816 51.4796 49.6047C51.4796 50.2278 51.684 50.7457 52.0955 51.1583ZM53.6153 53.219C52.612 53.219 51.7593 52.8711 51.0547 52.1752C50.3525 51.4793 50.0002 50.6216 50.0002 49.6047C50.0002 48.5879 50.3525 47.7328 51.0547 47.0369C51.7593 46.341 52.612 45.993 53.6153 45.993C54.6293 45.993 55.4874 46.341 56.1869 47.0369C56.8835 47.7328 57.2332 48.5879 57.2332 49.6047C57.2332 50.6216 56.8835 51.4793 56.1869 52.1752C55.4874 52.8711 54.6293 53.219 53.6153 53.219Z" fill="#E37551"/>
<path d="M61.9186 44.6734C60.8428 44.5735 60.3019 45.0269 60.3019 46.0329V46.1703H61.9186V47.6H60.3019V53.0402H58.8225V47.6H57.7815V46.1703H58.8225V46.0329C58.8225 45.0915 59.0861 44.3741 59.6108 43.8858C60.1353 43.3949 60.9046 43.182 61.9186 43.2439V44.6734Z" fill="#E37551"/>
<path d="M66.3043 43.4219H67.8806V53.0373H66.3043V43.4219Z" fill="#E37551"/>
<path d="M75.5505 43.4226H77.1268V53.0382H75.8922L71.3732 46.5136V53.0382H69.7969V43.4226H71.0288L75.5505 49.9471V43.4226Z" fill="#E37551"/>
<path d="M84.7982 43.4226H86.3745V53.0382H85.1399L80.6209 46.5136V53.0382H79.0446V43.4226H80.2765L84.7982 49.9471V43.4226Z" fill="#E37551"/>
<path d="M89.9086 51.1583C90.32 51.5709 90.8257 51.7759 91.4284 51.7759C92.0336 51.7759 92.5391 51.5709 92.9508 51.1583C93.3623 50.7457 93.5667 50.2278 93.5667 49.6047C93.5667 48.9816 93.3623 48.4637 92.9508 48.0538C92.5391 47.6412 92.0336 47.4362 91.4284 47.4362C90.8257 47.4362 90.32 47.6412 89.9086 48.0538C89.4969 48.4637 89.2925 48.9816 89.2925 49.6047C89.2925 50.2278 89.4969 50.7457 89.9086 51.1583ZM91.4284 53.219C90.4251 53.219 89.5724 52.8711 88.8676 52.1752C88.1656 51.4793 87.8131 50.6216 87.8131 49.6047C87.8131 48.5879 88.1656 47.7328 88.8676 47.0369C89.5724 46.341 90.4251 45.993 91.4284 45.993C92.4424 45.993 93.3005 46.341 93.9998 47.0369C94.6964 47.7328 95.0463 48.5879 95.0463 49.6047C95.0463 50.6216 94.6964 51.4793 93.9998 52.1752C93.3005 52.8711 92.4424 53.219 91.4284 53.219Z" fill="#E37551"/>
<path d="M100.759 46.1703H102.376L99.7048 53.0402H97.9914L95.3203 46.1703H96.937L98.8548 51.3923L100.759 46.1703Z" fill="#E37551"/>
<path d="M104.747 51.1789C105.158 51.5944 105.675 51.802 106.296 51.802C106.917 51.802 107.434 51.5944 107.843 51.1789C108.254 50.7608 108.459 50.2375 108.459 49.6065C108.459 48.9726 108.254 48.4493 107.843 48.0312C107.434 47.6159 106.917 47.4081 106.296 47.4081C105.675 47.4081 105.158 47.6159 104.747 48.0312C104.335 48.4493 104.13 48.9726 104.13 49.6065C104.13 50.2375 104.335 50.7608 104.747 51.1789ZM108.459 46.1701H109.941V53.04H108.459V52.0501C107.902 52.8297 107.103 53.2179 106.062 53.2179C105.12 53.2179 104.316 52.8673 103.652 52.1688C102.985 51.4675 102.651 50.6125 102.651 49.6065C102.651 48.5896 102.985 47.7319 103.652 47.036C104.316 46.3401 105.12 45.9922 106.062 45.9922C107.103 45.9922 107.902 46.378 108.459 47.1465V46.1701Z" fill="#E37551"/>
<path d="M115.489 47.5998H113.789V50.8985C113.789 51.1818 113.854 51.3839 113.98 51.508C114.109 51.6322 114.3 51.7022 114.55 51.713C114.8 51.7292 115.113 51.7265 115.489 51.7077V53.04C114.356 53.1776 113.542 53.0805 113.049 52.746C112.557 52.4116 112.31 51.794 112.31 50.8985V47.5998H111.051V46.1703H112.31V44.6867L113.789 44.2471V46.1703H115.489V47.5998Z" fill="#E37551"/>
<path d="M116.831 46.1703H118.31V53.0402H116.831V46.1703ZM118.235 44.8593C118.046 45.0481 117.826 45.1397 117.57 45.1397C117.315 45.1397 117.091 45.0481 116.906 44.8593C116.718 44.6705 116.626 44.4496 116.626 44.1933C116.626 43.937 116.715 43.713 116.898 43.5268C117.081 43.338 117.304 43.2437 117.57 43.2437C117.834 43.2437 118.057 43.338 118.243 43.5268C118.423 43.713 118.514 43.937 118.514 44.1933C118.514 44.4496 118.423 44.6705 118.235 44.8593Z" fill="#E37551"/>
<path d="M121.735 51.1583C122.147 51.5709 122.653 51.7759 123.255 51.7759C123.86 51.7759 124.366 51.5709 124.778 51.1583C125.189 50.7457 125.394 50.2278 125.394 49.6047C125.394 48.9816 125.189 48.4637 124.778 48.0538C124.366 47.6412 123.86 47.4362 123.255 47.4362C122.653 47.4362 122.147 47.6412 121.735 48.0538C121.324 48.4637 121.119 48.9816 121.119 49.6047C121.119 50.2278 121.324 50.7457 121.735 51.1583ZM123.255 53.219C122.252 53.219 121.399 52.8711 120.694 52.1752C119.992 51.4793 119.64 50.6216 119.64 49.6047C119.64 48.5879 119.992 47.7328 120.694 47.0369C121.399 46.341 122.252 45.993 123.255 45.993C124.269 45.993 125.127 46.341 125.827 47.0369C126.523 47.7328 126.873 48.5879 126.873 49.6047C126.873 50.6216 126.523 51.4793 125.827 52.1752C125.127 52.8711 124.269 53.219 123.255 53.219Z" fill="#E37551"/>
<path d="M131.82 45.9924C132.605 45.9924 133.24 46.2432 133.724 46.7476C134.208 47.252 134.451 47.9424 134.451 48.8218V53.0402H132.971V48.9728C132.971 48.4604 132.834 48.0666 132.559 47.7915C132.285 47.5163 131.911 47.3786 131.435 47.3786C130.916 47.3786 130.494 47.5433 130.176 47.8669C129.856 48.1934 129.695 48.6897 129.695 49.3586V53.0402H128.215V46.1703H129.695V47.0497C130.141 46.3456 130.851 45.9924 131.82 45.9924Z" fill="#E37551"/>
</g>
<defs>
<clipPath id="clip0_45_219">
<rect width="149" height="56" fill="white"/>
</clipPath>
</defs>
</svg>
