<svg width="50" height="50" viewBox="0 0 50 50" fill="none" xmlns="http://www.w3.org/2000/svg">
<circle cx="25" cy="25" r="25" fill="#FF0000"/>
<g clip-path="url(#clip0_23_906)">
<path d="M39.3374 18.1194C39.1654 17.5165 38.8297 16.9668 38.3639 16.5251C37.8981 16.0835 37.3184 15.7652 36.6824 15.602C34.3544 15 24.9848 15 24.9848 15C24.9848 15 15.6147 15.0182 13.2867 15.6202C12.6507 15.7834 12.071 16.1017 11.6052 16.5434C11.1394 16.9851 10.8037 17.5348 10.6317 18.1378C9.92748 22.0598 9.65432 28.036 10.651 31.8011C10.8231 32.404 11.1587 32.9537 11.6246 33.3954C12.0904 33.8371 12.6701 34.1554 13.306 34.3186C15.634 34.9206 25.0039 34.9206 25.0039 34.9206C25.0039 34.9206 34.3736 34.9206 36.7015 34.3186C37.3375 34.1554 37.9172 33.8371 38.3831 33.3954C38.8489 32.9538 39.1846 32.4041 39.3567 31.8011C40.0994 27.8736 40.3283 21.901 39.3374 18.1194Z" fill="white"/>
<path d="M22.3529 29.3703L30.1257 25.1017L22.3529 20.833V29.3703Z" fill="#FF0000"/>
</g>
<defs>
<clipPath id="clip0_23_906">
<rect width="30" height="20" fill="white" transform="translate(10 15)"/>
</clipPath>
</defs>
</svg>
